<svg xmlns="http://www.w3.org/2000/svg" viewBox="0 0 200 240" width="200" height="240">
  <!-- Tech 5: same as Tech 4 but with an extra chevron above the top one -->
  <path d="M 100 10 L 190 80 L 190 180 Q 190 220 100 230 Q 10 220 10 180 L 10 80 Z" fill="#556B2F" stroke="none"/>
  <!-- three chevrons, moved slightly lower to better align with the stripe and T -->
  <path d="M 100 48 L 160 88 L 155 98 L 100 63 L 45 98 L 40 88 Z" fill="#FFD54F" stroke="#B8860B" stroke-width="1"/>
  <path d="M 100 78 L 160 118 L 155 128 L 100 93 L 45 128 L 40 118 Z" fill="#FFD54F" stroke="#B8860B" stroke-width="1"/>
  <path d="M 100 108 L 160 148 L 155 158 L 100 123 L 45 158 L 40 148 Z" fill="#FFD54F" stroke="#B8860B" stroke-width="1"/>

  <!-- T emblem, same treatment as tech4 -->
  <g transform="translate(100, 185)">
    <rect x="-20" y="-18" width="40" height="8" fill="#FFD54F" stroke="#B8860B" stroke-width="0.8"/>
    <rect x="-7" y="-18" width="14" height="34" fill="#FFD54F" stroke="#B8860B" stroke-width="0.8"/>
  </g>
</svg>
